<svg xmlns="http://www.w3.org/2000/svg" width="308" height="308" viewBox="0 0 308 308">
  <defs>
    <clipPath id="clip-path">
      <path id="Path_558" data-name="Path 558" d="M0,46.577H212.833V-22.487H0Z" transform="translate(0 22.487)" fill="none"/>
    </clipPath>
  </defs>
  <g id="loga-01-11" transform="translate(0 -0.063)">
    <g id="Vrstva_1">
      <g id="Vrstva_2">
        <rect id="Rectangle_161" data-name="Rectangle 161" width="308" height="308" transform="translate(0 0.063)"/>
      </g>
      <g id="Group_812" data-name="Group 812" transform="translate(49.583 141.018)">
        <g id="Group_811" data-name="Group 811" transform="translate(0 -22.487)" clip-path="url(#clip-path)">
          <g id="Group_806" data-name="Group 806" transform="translate(-0.001 1.38)">
            <path id="Path_553" data-name="Path 553" d="M22.5,23.024H9l3.342-3.987c7.2-8.486,9.837-12.024,9.837-16.265,0-7.715-6.557-13.888-16.843-13.888-10.482,0-15.946,6.364-16.2,15.366H1.159A3.877,3.877,0,0,1,5.146.457,3.109,3.109,0,0,1,8.552,3.608c0,2.058-1.8,3.858-5.464,8.292L-10.22,27.717v5.851H22.5Zm27.777-34.14c-13.824,0-23.6,9.9-23.6,22.826s9.773,22.823,23.6,22.823,23.6-9.9,23.6-22.823S64.1-11.116,50.281-11.116m0,33.5A10.429,10.429,0,0,1,39.863,11.71a10.419,10.419,0,1,1,20.832,0A10.428,10.428,0,0,1,50.281,22.382m59.214.642h-13.5l3.345-3.987c7.2-8.486,9.837-12.024,9.837-16.265,0-7.715-6.557-13.888-16.846-13.888-10.479,0-15.943,6.364-16.2,15.366H88.15A3.875,3.875,0,0,1,92.136.457a3.109,3.109,0,0,1,3.406,3.151c0,2.058-1.8,3.858-5.464,8.292L76.768,27.717v5.851H109.5ZM127.561,4.83V.521h18.9V-10.152h-30.8v24.88h14.656c4.374,0,6.751,1.932,6.751,4.76,0,2.958-2.571,5.077-6.235,5.077A5.934,5.934,0,0,1,124.667,20h-11.96c.709,8.744,7.844,14.53,18.133,14.53,10.673,0,17.875-5.98,17.875-15.108,0-8.231-5.4-14.595-16.011-14.595Z" transform="translate(10.865 11.116)" fill="#fff"/>
          </g>
          <g id="Group_807" data-name="Group 807" transform="translate(20.103 58.473)">
            <path id="Path_554" data-name="Path 554" d="M2.413,4.267,4.489,7.056H7.478l-3.351-4.8,3.151-3.7H4.314L1.35,2V-1.449H-1.165v8.5H1.35V5.5ZM14.032.9H11.605V4.666a1.152,1.152,0,0,1-.838.4c-.476,0-.863-.276-.863-1.026V.9H7.478V4.58a2.421,2.421,0,0,0,2.528,2.663,2.516,2.516,0,0,0,1.6-.55v.362h2.426Zm3.615-2.727H15.233V7.056h2.414Zm6.189,6.717c-.611.074-.924.123-1.161.123a.707.707,0,0,1-.8-.8V2.98h1.938V.9H21.873V-1.074H19.446V.9H18.359V2.98h1.087V4.328c0,1.751,1,2.915,2.5,2.915a6.558,6.558,0,0,0,2.128-.338ZM31.44.9H29.013V4.666a1.147,1.147,0,0,1-.838.4c-.476,0-.863-.276-.863-1.026V.9H24.886V4.58a2.421,2.421,0,0,0,2.528,2.663,2.516,2.516,0,0,0,1.6-.55v.362H31.44ZM37.118.8a3.058,3.058,0,0,0-2.064.725V.9H32.641V7.056h2.414V3.729A3.036,3.036,0,0,1,37.118,3.1Zm7.528.1H42.22v.249A2.981,2.981,0,0,0,40.632.726a3.107,3.107,0,0,0-3.053,3.228,3.1,3.1,0,0,0,3.053,3.216,2.954,2.954,0,0,0,1.588-.427v.313h2.426ZM41.182,5.28a1.269,1.269,0,0,1-1.275-1.327,1.264,1.264,0,0,1,1.275-1.327,1.443,1.443,0,0,1,1.038.4V4.866a1.408,1.408,0,0,1-1.038.415m4.364,3.252h1.275l.814-1.315c.427-.688.451-.875.451-1.189a1.238,1.238,0,0,0-1.278-1.213,1.223,1.223,0,0,0-1.262,1.2,1.087,1.087,0,0,0,.688,1.014Zm9.6-3.366,1.25,1.889h2.74L56.772,3.379,59.035.9H56.271l-1.815,1.95V-1.824H52.042V7.056h2.414V5.919Zm9.567-.273c-.611.074-.924.123-1.161.123a.707.707,0,0,1-.8-.8V2.98h1.938V.9H62.748V-1.074H60.322V.9H59.235V2.98h1.087V4.328c0,1.751,1,2.915,2.5,2.915a6.558,6.558,0,0,0,2.128-.338ZM71.953,3.84A3.06,3.06,0,0,0,68.676.726,3.1,3.1,0,0,0,65.4,3.966a3.177,3.177,0,0,0,3.452,3.228,2.875,2.875,0,0,0,3.065-2.227H69.665a.947.947,0,0,1-.826.415A1.131,1.131,0,0,1,67.675,4.5h4.254a5.961,5.961,0,0,0,.025-.663M68.737,2.467a1,1,0,0,1,1.078.888H67.65a1.074,1.074,0,0,1,1.087-.888M77.294.8a3.058,3.058,0,0,0-2.064.725V.9H72.816V7.056H75.23V3.729A3.036,3.036,0,0,1,77.294,3.1ZM82.847.078,84.1-2.06H81.618L80.543.078ZM84.822.9H82.4v.249A2.942,2.942,0,0,0,80.807.726a3.107,3.107,0,0,0-3.053,3.228,3.1,3.1,0,0,0,3.053,3.216A2.915,2.915,0,0,0,82.4,6.742v.313h2.426ZM81.369,5.28a1.279,1.279,0,0,1-1.287-1.327,1.273,1.273,0,0,1,1.287-1.327,1.493,1.493,0,0,1,1.026.39V4.881a1.463,1.463,0,0,1-1.026.4m12.712-.387c-.614.074-.924.123-1.164.123a.707.707,0,0,1-.8-.8V2.98h1.938V.9H92.119V-1.074H89.693V.9H88.605V2.98h1.087V4.328c0,1.751,1,2.915,2.5,2.915a6.529,6.529,0,0,0,2.125-.338ZM99.684.8a3.064,3.064,0,0,0-2.064.725V.9H95.206V7.056H97.62V3.729A3.042,3.042,0,0,1,99.684,3.1Zm7.78.1h-2.54l-1.186,3.114L102.537.9H100l2.528,6.152h2.411Zm4.991-.826L113.7-2.06h-2.475L110.15.078ZM114.429.9H112v.249a2.942,2.942,0,0,0-1.588-.427,3.109,3.109,0,0,0-3.053,3.228,3.1,3.1,0,0,0,3.053,3.216A2.915,2.915,0,0,0,112,6.742v.313h2.426ZM110.977,5.28a1.279,1.279,0,0,1-1.287-1.327,1.273,1.273,0,0,1,1.287-1.327,1.493,1.493,0,0,1,1.026.39V4.881a1.463,1.463,0,0,1-1.026.4m7.006-1.05.212-5.679h-2.528l.212,5.679Zm-1.053,2.988a1.139,1.139,0,1,0-1.2-1.152,1.167,1.167,0,0,0,1.2,1.152" transform="translate(1.165 2.06)" fill="#fff"/>
          </g>
          <g id="Group_808" data-name="Group 808" transform="translate(179.99 6.04)">
            <path id="Path_555" data-name="Path 555" d="M.851,0H-.411V2.614H.851A1.361,1.361,0,0,0,2.375,1.25C2.375.494,1.767,0,.851,0" transform="translate(0.411 0)" fill="#fff"/>
          </g>
          <g id="Group_809" data-name="Group 809" transform="translate(197.006 7.947)">
            <path id="Path_556" data-name="Path 556" d="M.86,0A1.228,1.228,0,0,0-.415,1H2.073A1.074,1.074,0,0,0,.86,0" transform="translate(0.415)" fill="#fff"/>
          </g>
          <g id="Group_810" data-name="Group 810" transform="translate(167.374 0.001)">
            <path id="Path_557" data-name="Path 557" d="M5.671,0-2.738,8.418l8.409,8.418H42.723V0ZM34.658,3.811l.657.817.633-.817H37.7L36.267,5.792H34.335L32.9,3.811ZM11.015,10.485H9.876v2.144H7.784V4.2h3.394c2.2,0,3.566,1.192,3.566,3.087,0,1.969-1.437,3.194-3.729,3.194m6.665,2.144H15.662V3.836H17.68Zm6.649-4.942L21.6,10.968h2.724v1.662h-5.6v-.98l2.826-3.357H18.779V6.622h5.55ZM31.215,10.1H26.869a1.29,1.29,0,0,0,1.361,1.1,1.038,1.038,0,0,0,.891-.322h2.033a2.843,2.843,0,0,1-2.887,1.907,3.084,3.084,0,0,1-3.28-3.17,3.025,3.025,0,0,1,3.133-3.16A2.9,2.9,0,0,1,31.252,9.42a4.23,4.23,0,0,1-.037.682m7.233,2.528H36.442V9.518c0-.854-.436-1.238-1.1-1.238a1.512,1.512,0,0,0-1.09.571v3.778H32.232V6.622h2.018v.4A2.646,2.646,0,0,1,35.9,6.459,2.48,2.48,0,0,1,38.448,9.2Z" transform="translate(2.738)" fill="#fff"/>
          </g>
        </g>
      </g>
    </g>
  </g>
</svg>
